<svg width="354" height="45" viewBox="0 0 354 45" fill="none" xmlns="http://www.w3.org/2000/svg">
<path d="M12.365 5.04C11.285 5.1 10.49 5.22 9.98 5.4C9.5 5.58 9.17 5.925 8.99 6.435C8.81 6.945 8.72 7.77 8.72 8.91V31.23C8.72 32.37 8.81 33.195 8.99 33.705C9.17 34.215 9.5 34.56 9.98 34.74C10.49 34.92 11.285 35.04 12.365 35.1V36C10.985 35.91 9.08 35.865 6.65 35.865C4.07 35.865 2.15 35.91 0.89 36V35.1C1.97 35.04 2.75 34.92 3.23 34.74C3.74 34.56 4.085 34.215 4.265 33.705C4.445 33.195 4.535 32.37 4.535 31.23V8.91C4.535 7.77 4.445 6.945 4.265 6.435C4.085 5.925 3.74 5.58 3.23 5.4C2.75 5.22 1.97 5.1 0.89 5.04V4.14C2.15 4.23 4.07 4.275 6.65 4.275C9.05 4.275 10.955 4.23 12.365 4.14V5.04ZM22.709 31.815C22.709 33.045 22.964 33.9 23.474 34.38C23.984 34.83 24.869 35.055 26.129 35.055V36C23.369 35.88 21.554 35.82 20.684 35.82C19.814 35.82 17.999 35.88 15.239 36V35.055C16.499 35.055 17.384 34.83 17.894 34.38C18.404 33.9 18.659 33.045 18.659 31.815V6.12C18.659 4.74 18.404 3.735 17.894 3.105C17.384 2.475 16.499 2.16 15.239 2.16V1.215C16.169 1.305 17.099 1.35 18.029 1.35C19.919 1.35 21.479 1.14 22.709 0.719998V31.815ZM35.585 31.815C35.585 33.045 35.84 33.9 36.35 34.38C36.86 34.83 37.745 35.055 39.005 35.055V36C36.245 35.88 34.43 35.82 33.56 35.82C32.69 35.82 30.875 35.88 28.115 36V35.055C29.375 35.055 30.26 34.83 30.77 34.38C31.28 33.9 31.535 33.045 31.535 31.815V6.12C31.535 4.74 31.28 3.735 30.77 3.105C30.26 2.475 29.375 2.16 28.115 2.16V1.215C29.045 1.305 29.975 1.35 30.905 1.35C32.795 1.35 34.355 1.14 35.585 0.719998V31.815ZM61.736 31.14C61.736 32.52 61.991 33.525 62.501 34.155C63.011 34.785 63.896 35.1 65.156 35.1V36.045C64.226 35.955 63.296 35.91 62.366 35.91C60.476 35.91 58.916 36.12 57.686 36.54V31.23C56.966 33.09 55.946 34.455 54.626 35.325C53.306 36.195 51.866 36.63 50.306 36.63C48.266 36.63 46.706 36.06 45.626 34.92C45.086 34.32 44.696 33.555 44.456 32.625C44.246 31.695 44.141 30.495 44.141 29.025V17.73C44.141 16.35 43.886 15.345 43.376 14.715C42.866 14.085 41.981 13.77 40.721 13.77V12.825C41.651 12.915 42.581 12.96 43.511 12.96C45.401 12.96 46.961 12.75 48.191 12.33V30.015C48.191 31.155 48.251 32.085 48.371 32.805C48.521 33.495 48.836 34.065 49.316 34.515C49.826 34.965 50.591 35.19 51.611 35.19C52.751 35.19 53.786 34.83 54.716 34.11C55.646 33.39 56.366 32.415 56.876 31.185C57.416 29.925 57.686 28.545 57.686 27.045V17.73C57.686 16.35 57.431 15.345 56.921 14.715C56.411 14.085 55.526 13.77 54.266 13.77V12.825C55.196 12.915 56.126 12.96 57.056 12.96C58.946 12.96 60.506 12.75 61.736 12.33V31.14ZM102.013 31.815C102.013 33.045 102.268 33.9 102.778 34.38C103.288 34.83 104.173 35.055 105.433 35.055V36C102.673 35.88 100.873 35.82 100.033 35.82C99.1934 35.82 97.5134 35.88 94.9934 36V35.055C96.1034 35.055 96.8684 34.83 97.2884 34.38C97.7384 33.9 97.9634 33.045 97.9634 31.815V18.81C97.9634 17.67 97.8884 16.755 97.7384 16.065C97.6184 15.345 97.3034 14.76 96.7934 14.31C96.3134 13.86 95.5634 13.635 94.5434 13.635C93.4034 13.635 92.3684 13.995 91.4384 14.715C90.5084 15.435 89.7734 16.425 89.2334 17.685C88.7234 18.915 88.4684 20.28 88.4684 21.78V31.815C88.4684 33.045 88.7234 33.9 89.2334 34.38C89.7434 34.83 90.6284 35.055 91.8884 35.055V36C89.1284 35.88 87.3284 35.82 86.4884 35.82C85.6484 35.82 83.9684 35.88 81.4484 36V35.055C82.5584 35.055 83.3234 34.83 83.7434 34.38C84.1934 33.9 84.4184 33.045 84.4184 31.815V18.81C84.4184 17.67 84.3434 16.755 84.1934 16.065C84.0734 15.345 83.7584 14.76 83.2484 14.31C82.7684 13.86 82.0184 13.635 80.9984 13.635C79.8584 13.635 78.8234 13.995 77.8934 14.715C76.9634 15.435 76.2284 16.425 75.6884 17.685C75.1784 18.945 74.9234 20.325 74.9234 21.825V31.815C74.9234 33.045 75.1334 33.9 75.5534 34.38C76.0034 34.83 76.7834 35.055 77.8934 35.055V36C75.3734 35.88 73.6934 35.82 72.8534 35.82C72.0134 35.82 70.2134 35.88 67.4534 36V35.055C68.7134 35.055 69.5984 34.83 70.1084 34.38C70.6184 33.9 70.8734 33.045 70.8734 31.815V17.73C70.8734 16.35 70.6184 15.345 70.1084 14.715C69.5984 14.085 68.7134 13.77 67.4534 13.77V12.825C68.4134 12.915 69.3434 12.96 70.2434 12.96C72.1334 12.96 73.6934 12.75 74.9234 12.33V17.64C75.6434 15.78 76.6634 14.415 77.9834 13.545C79.3034 12.645 80.7434 12.195 82.3034 12.195C84.3434 12.195 85.9034 12.765 86.9834 13.905C87.7334 14.685 88.1984 15.885 88.3784 17.505C89.1284 15.615 90.1634 14.265 91.4834 13.455C92.8034 12.615 94.2584 12.195 95.8484 12.195C97.8884 12.195 99.4484 12.765 100.528 13.905C101.068 14.505 101.443 15.27 101.653 16.2C101.893 17.13 102.013 18.33 102.013 19.8V31.815ZM126.93 30.6C126.39 32.25 125.37 33.675 123.87 34.875C122.4 36.045 120.615 36.63 118.515 36.63C116.385 36.63 114.54 36.15 112.98 35.19C111.42 34.2 110.22 32.835 109.38 31.095C108.57 29.325 108.165 27.285 108.165 24.975C108.165 22.365 108.585 20.1 109.425 18.18C110.265 16.26 111.45 14.79 112.98 13.77C114.51 12.72 116.295 12.195 118.335 12.195C121.035 12.195 123.105 13.02 124.545 14.67C126.015 16.29 126.75 18.765 126.75 22.095H112.665C112.575 22.935 112.53 23.895 112.53 24.975C112.53 26.955 112.845 28.68 113.475 30.15C114.135 31.62 114.99 32.76 116.04 33.57C117.12 34.35 118.245 34.74 119.415 34.74C120.855 34.74 122.13 34.395 123.24 33.705C124.35 33.015 125.28 31.86 126.03 30.24L126.93 30.6ZM118.155 13.05C116.745 13.05 115.53 13.74 114.51 15.12C113.49 16.5 112.86 18.54 112.62 21.24H122.43C122.49 18.9 122.145 16.95 121.395 15.39C120.675 13.83 119.595 13.05 118.155 13.05ZM145.283 12.195C147.383 12.195 148.973 12.765 150.053 13.905C150.623 14.505 151.028 15.255 151.268 16.155C151.508 17.055 151.628 18.27 151.628 19.8V31.815C151.628 33.045 151.883 33.9 152.393 34.38C152.903 34.83 153.788 35.055 155.048 35.055V36C152.288 35.88 150.488 35.82 149.648 35.82C148.808 35.82 147.128 35.88 144.608 36V35.055C145.718 35.055 146.483 34.83 146.903 34.38C147.353 33.9 147.578 33.045 147.578 31.815V18.81C147.578 17.13 147.338 15.855 146.858 14.985C146.378 14.085 145.403 13.635 143.933 13.635C142.703 13.635 141.608 13.995 140.648 14.715C139.688 15.435 138.938 16.425 138.398 17.685C137.888 18.915 137.633 20.295 137.633 21.825V31.815C137.633 33.045 137.843 33.9 138.263 34.38C138.713 34.83 139.493 35.055 140.603 35.055V36C138.083 35.88 136.403 35.82 135.563 35.82C134.723 35.82 132.923 35.88 130.163 36V35.055C131.423 35.055 132.308 34.83 132.818 34.38C133.328 33.9 133.583 33.045 133.583 31.815V17.73C133.583 16.35 133.328 15.345 132.818 14.715C132.308 14.085 131.423 13.77 130.163 13.77V12.825C131.123 12.915 132.053 12.96 132.953 12.96C134.843 12.96 136.403 12.75 137.633 12.33V17.64C138.383 15.72 139.418 14.34 140.738 13.5C142.088 12.63 143.603 12.195 145.283 12.195ZM162.144 1.575C162.924 1.575 163.599 1.86 164.169 2.43C164.739 3 165.024 3.675 165.024 4.455C165.024 5.235 164.739 5.91 164.169 6.48C163.599 7.05 162.924 7.335 162.144 7.335C161.364 7.335 160.689 7.05 160.119 6.48C159.549 5.91 159.264 5.235 159.264 4.455C159.264 3.675 159.549 3 160.119 2.43C160.689 1.86 161.364 1.575 162.144 1.575ZM164.484 31.815C164.484 33.045 164.739 33.9 165.249 34.38C165.759 34.83 166.644 35.055 167.904 35.055V36C165.144 35.88 163.329 35.82 162.459 35.82C161.589 35.82 159.774 35.88 157.014 36V35.055C158.274 35.055 159.159 34.83 159.669 34.38C160.179 33.9 160.434 33.045 160.434 31.815V17.73C160.434 16.35 160.179 15.345 159.669 14.715C159.159 14.085 158.274 13.77 157.014 13.77V12.825C157.974 12.915 158.904 12.96 159.804 12.96C161.694 12.96 163.254 12.75 164.484 12.33V31.815ZM189.819 23.13V31.23C189.819 32.37 189.939 33.195 190.179 33.705C190.419 34.215 190.839 34.56 191.439 34.74C192.039 34.92 193.014 35.04 194.364 35.1V36C192.804 35.91 190.599 35.865 187.749 35.865C185.169 35.865 183.249 35.91 181.989 36V35.1C183.069 35.04 183.849 34.92 184.329 34.74C184.839 34.56 185.184 34.215 185.364 33.705C185.544 33.195 185.634 32.37 185.634 31.23V8.91C185.634 7.77 185.544 6.945 185.364 6.435C185.184 5.925 184.839 5.58 184.329 5.4C183.849 5.22 183.069 5.1 181.989 5.04V4.14C183.249 4.23 185.079 4.275 187.479 4.275L192.339 4.23C192.909 4.2 193.554 4.185 194.274 4.185C197.784 4.185 200.469 4.995 202.329 6.615C204.189 8.205 205.119 10.35 205.119 13.05C205.119 14.7 204.744 16.29 203.994 17.82C203.274 19.32 202.029 20.58 200.259 21.6C198.519 22.62 196.194 23.13 193.284 23.13H189.819ZM193.149 5.04C192.219 5.04 191.514 5.145 191.034 5.355C190.584 5.565 190.269 5.94 190.089 6.48C189.909 7.02 189.819 7.83 189.819 8.91V22.23H192.834C195.774 22.23 197.799 21.45 198.909 19.89C200.049 18.3 200.619 16.185 200.619 13.545C200.619 10.635 200.034 8.49 198.864 7.11C197.724 5.73 195.819 5.04 193.149 5.04ZM213.449 36.315C211.559 36.315 210.149 35.85 209.219 34.92C208.319 33.96 207.869 32.64 207.869 30.96C207.869 29.61 208.229 28.5 208.949 27.63C209.699 26.76 210.569 26.07 211.559 25.56C212.579 25.05 213.914 24.51 215.564 23.94C217.244 23.37 218.489 22.845 219.299 22.365C220.109 21.885 220.514 21.24 220.514 20.43V17.64C220.514 15.9 220.139 14.715 219.389 14.085C218.669 13.425 217.649 13.095 216.329 13.095C214.229 13.095 212.744 13.635 211.874 14.715C212.474 14.865 212.969 15.18 213.359 15.66C213.779 16.14 213.989 16.74 213.989 17.46C213.989 18.21 213.749 18.81 213.269 19.26C212.789 19.68 212.174 19.89 211.424 19.89C210.584 19.89 209.954 19.635 209.534 19.125C209.114 18.585 208.904 17.94 208.904 17.19C208.904 16.47 209.069 15.87 209.399 15.39C209.759 14.91 210.284 14.43 210.974 13.95C211.694 13.44 212.609 13.02 213.719 12.69C214.829 12.36 216.044 12.195 217.364 12.195C219.704 12.195 221.474 12.75 222.674 13.86C223.424 14.55 223.919 15.39 224.159 16.38C224.429 17.34 224.564 18.615 224.564 20.205V32.715C224.564 33.465 224.669 34.005 224.879 34.335C225.089 34.665 225.449 34.83 225.959 34.83C226.319 34.83 226.649 34.755 226.949 34.605C227.279 34.425 227.624 34.185 227.984 33.885L228.479 34.65C227.699 35.25 227.024 35.685 226.454 35.955C225.914 36.195 225.224 36.315 224.384 36.315C222.944 36.315 221.939 35.955 221.369 35.235C220.799 34.515 220.514 33.54 220.514 32.31C219.614 33.81 218.579 34.86 217.409 35.46C216.239 36.03 214.919 36.315 213.449 36.315ZM215.429 34.515C217.409 34.515 219.104 33.375 220.514 31.095V22.275C220.244 22.695 219.869 23.04 219.389 23.31C218.909 23.58 218.174 23.94 217.184 24.39C216.044 24.87 215.114 25.335 214.394 25.785C213.704 26.205 213.104 26.79 212.594 27.54C212.084 28.29 211.829 29.25 211.829 30.42C211.829 31.77 212.159 32.79 212.819 33.48C213.479 34.17 214.349 34.515 215.429 34.515ZM243.826 12.195C245.026 12.195 246.001 12.54 246.751 13.23C247.531 13.92 247.921 14.76 247.921 15.75C247.921 16.53 247.681 17.205 247.201 17.775C246.751 18.315 246.136 18.585 245.356 18.585C244.696 18.585 244.126 18.375 243.646 17.955C243.196 17.535 242.971 16.965 242.971 16.245C242.971 15.255 243.481 14.445 244.501 13.815C244.291 13.515 243.976 13.365 243.556 13.365C242.386 13.365 241.321 13.83 240.361 14.76C239.401 15.66 238.651 16.77 238.111 18.09C237.571 19.41 237.301 20.655 237.301 21.825V31.365C237.301 32.745 237.691 33.705 238.471 34.245C239.281 34.785 240.481 35.055 242.071 35.055V36L240.991 35.955C237.931 35.865 235.981 35.82 235.141 35.82C234.361 35.82 232.591 35.88 229.831 36V35.055C231.091 35.055 231.976 34.83 232.486 34.38C232.996 33.9 233.251 33.045 233.251 31.815V17.73C233.251 16.35 232.996 15.345 232.486 14.715C231.976 14.085 231.091 13.77 229.831 13.77V12.825C230.791 12.915 231.721 12.96 232.621 12.96C234.511 12.96 236.071 12.75 237.301 12.33V17.955C237.841 16.455 238.696 15.12 239.866 13.95C241.066 12.78 242.386 12.195 243.826 12.195ZM268.972 32.715C269.542 33.465 270.052 34.02 270.502 34.38C270.952 34.74 271.492 34.965 272.122 35.055V36C270.322 35.88 269.107 35.82 268.477 35.82C267.667 35.82 266.002 35.88 263.482 36V35.055C263.902 35.055 264.232 34.98 264.472 34.83C264.742 34.65 264.877 34.44 264.877 34.2C264.877 33.96 264.787 33.735 264.607 33.525L259.432 25.965C258.922 25.215 258.427 24.72 257.947 24.48C257.497 24.21 256.867 24.045 256.057 23.985V31.815C256.057 33.045 256.267 33.9 256.687 34.38C257.137 34.83 257.917 35.055 259.027 35.055V36C256.507 35.88 254.842 35.82 254.032 35.82C253.162 35.82 251.347 35.88 248.587 36V35.055C249.847 35.055 250.732 34.83 251.242 34.38C251.752 33.9 252.007 33.045 252.007 31.815V6.12C252.007 4.74 251.752 3.735 251.242 3.105C250.732 2.475 249.847 2.16 248.587 2.16V1.215C249.547 1.305 250.477 1.35 251.377 1.35C253.267 1.35 254.827 1.14 256.057 0.719998V23.04C256.927 22.92 257.647 22.725 258.217 22.455C258.817 22.155 259.387 21.735 259.927 21.195L263.257 17.73C264.217 16.74 264.697 15.915 264.697 15.255C264.697 14.745 264.382 14.37 263.752 14.13C263.152 13.86 262.357 13.725 261.367 13.725V12.825C263.467 12.945 265.162 13.005 266.452 13.005C267.862 13.005 269.167 12.945 270.367 12.825V13.725C268.897 13.845 267.547 14.55 266.317 15.84L260.827 21.6L268.972 32.715ZM278.863 1.575C279.643 1.575 280.318 1.86 280.888 2.43C281.458 3 281.743 3.675 281.743 4.455C281.743 5.235 281.458 5.91 280.888 6.48C280.318 7.05 279.643 7.335 278.863 7.335C278.083 7.335 277.408 7.05 276.838 6.48C276.268 5.91 275.983 5.235 275.983 4.455C275.983 3.675 276.268 3 276.838 2.43C277.408 1.86 278.083 1.575 278.863 1.575ZM281.203 31.815C281.203 33.045 281.458 33.9 281.968 34.38C282.478 34.83 283.363 35.055 284.623 35.055V36C281.863 35.88 280.048 35.82 279.178 35.82C278.308 35.82 276.493 35.88 273.733 36V35.055C274.993 35.055 275.878 34.83 276.388 34.38C276.898 33.9 277.153 33.045 277.153 31.815V17.73C277.153 16.35 276.898 15.345 276.388 14.715C275.878 14.085 274.993 13.77 273.733 13.77V12.825C274.693 12.915 275.623 12.96 276.523 12.96C278.413 12.96 279.973 12.75 281.203 12.33V31.815ZM302.036 12.195C304.136 12.195 305.726 12.765 306.806 13.905C307.376 14.505 307.781 15.255 308.021 16.155C308.261 17.055 308.381 18.27 308.381 19.8V31.815C308.381 33.045 308.636 33.9 309.146 34.38C309.656 34.83 310.541 35.055 311.801 35.055V36C309.041 35.88 307.241 35.82 306.401 35.82C305.561 35.82 303.881 35.88 301.361 36V35.055C302.471 35.055 303.236 34.83 303.656 34.38C304.106 33.9 304.331 33.045 304.331 31.815V18.81C304.331 17.13 304.091 15.855 303.611 14.985C303.131 14.085 302.156 13.635 300.686 13.635C299.456 13.635 298.361 13.995 297.401 14.715C296.441 15.435 295.691 16.425 295.151 17.685C294.641 18.915 294.386 20.295 294.386 21.825V31.815C294.386 33.045 294.596 33.9 295.016 34.38C295.466 34.83 296.246 35.055 297.356 35.055V36C294.836 35.88 293.156 35.82 292.316 35.82C291.476 35.82 289.676 35.88 286.916 36V35.055C288.176 35.055 289.061 34.83 289.571 34.38C290.081 33.9 290.336 33.045 290.336 31.815V17.73C290.336 16.35 290.081 15.345 289.571 14.715C289.061 14.085 288.176 13.77 286.916 13.77V12.825C287.876 12.915 288.806 12.96 289.706 12.96C291.596 12.96 293.156 12.75 294.386 12.33V17.64C295.136 15.72 296.171 14.34 297.491 13.5C298.841 12.63 300.356 12.195 302.036 12.195ZM333.217 16.875C332.677 16.875 332.212 16.695 331.822 16.335C331.462 15.975 331.282 15.45 331.282 14.76C331.282 14.16 331.432 13.47 331.732 12.69C330.952 13.02 330.337 13.395 329.887 13.815C329.437 14.205 329.032 14.7 328.672 15.3C329.362 16.35 329.707 17.685 329.707 19.305C329.707 21.675 328.987 23.46 327.547 24.66C326.107 25.83 324.202 26.415 321.832 26.415H321.787C320.797 26.985 320.047 27.51 319.537 27.99C319.027 28.47 318.772 29.01 318.772 29.61C318.772 30.57 319.492 31.05 320.932 31.05H326.557C328.597 31.05 330.277 31.5 331.597 32.4C332.947 33.27 333.622 34.59 333.622 36.36C333.622 37.8 333.157 39.135 332.227 40.365C331.297 41.595 329.932 42.585 328.132 43.335C326.332 44.085 324.157 44.46 321.607 44.46C318.997 44.46 316.807 44.055 315.037 43.245C313.297 42.465 312.427 41.295 312.427 39.735C312.427 38.715 312.832 37.83 313.642 37.08C314.482 36.33 315.637 35.745 317.107 35.325L317.377 36.045C316.717 36.255 316.192 36.675 315.802 37.305C315.412 37.935 315.217 38.64 315.217 39.42C315.217 40.8 315.832 41.85 317.062 42.57C318.322 43.32 320.002 43.695 322.102 43.695C324.412 43.695 326.392 43.245 328.042 42.345C329.692 41.475 330.517 40.11 330.517 38.25C330.517 37.17 330.127 36.33 329.347 35.73C328.597 35.13 327.247 34.83 325.297 34.83H321.967C320.197 34.83 318.772 34.605 317.692 34.155C316.642 33.705 316.117 32.805 316.117 31.455C316.117 30.525 316.447 29.64 317.107 28.8C317.797 27.96 318.922 27.135 320.482 26.325C318.502 26.115 316.912 25.425 315.712 24.255C314.542 23.085 313.957 21.435 313.957 19.305C313.957 16.935 314.677 15.165 316.117 13.995C317.557 12.795 319.462 12.195 321.832 12.195C324.652 12.195 326.737 12.975 328.087 14.535C328.657 13.725 329.377 13.065 330.247 12.555C331.117 12.015 331.987 11.745 332.857 11.745C333.637 11.745 334.267 11.97 334.747 12.42C335.227 12.87 335.467 13.515 335.467 14.355C335.467 15.195 335.227 15.825 334.747 16.245C334.297 16.665 333.787 16.875 333.217 16.875ZM321.832 25.605C323.032 25.605 323.932 25.14 324.532 24.21C325.162 23.25 325.477 21.615 325.477 19.305C325.477 16.995 325.162 15.375 324.532 14.445C323.932 13.485 323.032 13.005 321.832 13.005C320.632 13.005 319.717 13.485 319.087 14.445C318.487 15.375 318.187 16.995 318.187 19.305C318.187 21.615 318.487 23.25 319.087 24.21C319.717 25.14 320.632 25.605 321.832 25.605ZM344.937 12.195C346.017 12.195 346.977 12.36 347.817 12.69C348.657 13.02 349.332 13.41 349.842 13.86C350.172 14.1 350.442 14.22 350.652 14.22C351.192 14.22 351.522 13.56 351.642 12.24H352.677C352.557 13.71 352.497 16.26 352.497 19.89H351.462C351.132 17.91 350.487 16.275 349.527 14.985C348.597 13.695 347.202 13.05 345.342 13.05C344.262 13.05 343.377 13.365 342.687 13.995C341.997 14.595 341.652 15.435 341.652 16.515C341.652 17.565 342.012 18.45 342.732 19.17C343.452 19.86 344.607 20.7 346.197 21.69C346.467 21.84 346.872 22.095 347.412 22.455C348.792 23.355 349.902 24.15 350.742 24.84C351.582 25.53 352.257 26.325 352.767 27.225C353.307 28.125 353.577 29.16 353.577 30.33C353.577 32.31 352.827 33.855 351.327 34.965C349.857 36.075 348.042 36.63 345.882 36.63C344.532 36.63 343.347 36.42 342.327 36C341.667 35.67 341.052 35.265 340.482 34.785C340.362 34.665 340.227 34.605 340.077 34.605C339.867 34.605 339.672 34.755 339.492 35.055C339.342 35.355 339.222 35.775 339.132 36.315H338.097C338.217 34.605 338.277 31.605 338.277 27.315H339.312C339.642 30.135 340.242 32.25 341.112 33.66C341.982 35.04 343.467 35.73 345.567 35.73C346.617 35.73 347.547 35.385 348.357 34.695C349.167 34.005 349.572 32.925 349.572 31.455C349.572 30.285 349.167 29.295 348.357 28.485C347.577 27.675 346.287 26.7 344.487 25.56C343.017 24.63 341.877 23.865 341.067 23.265C340.287 22.665 339.627 21.93 339.087 21.06C338.547 20.19 338.277 19.17 338.277 18C338.277 16.11 338.907 14.67 340.167 13.68C341.427 12.69 343.017 12.195 344.937 12.195Z" fill="#FFFCFC"/>
</svg>
