<svg width="24" height="25" viewBox="0 0 24 25" fill="none" xmlns="http://www.w3.org/2000/svg">
<path d="M11.9999 17.5C11.7447 17.4987 11.4929 17.4406 11.2628 17.3299C11.0328 17.2192 10.8302 17.0587 10.6699 16.86L6.45995 11.76C6.21394 11.453 6.05913 11.083 6.01316 10.6923C5.9672 10.3015 6.03191 9.90574 6.19995 9.55C6.33623 9.24083 6.55862 8.97741 6.84057 8.79122C7.12251 8.60503 7.45209 8.50393 7.78995 8.5H16.2099C16.5478 8.50393 16.8774 8.60503 17.1593 8.79122C17.4413 8.97741 17.6637 9.24083 17.7999 9.55C17.968 9.90574 18.0327 10.3015 17.9867 10.6923C17.9408 11.083 17.786 11.453 17.5399 11.76L13.3299 16.86C13.1696 17.0587 12.9671 17.2192 12.7371 17.3299C12.507 17.4406 12.2552 17.4987 11.9999 17.5Z" fill="black"/>
</svg>
