<svg width="196" height="25" viewBox="0 0 196 25" fill="none" xmlns="http://www.w3.org/2000/svg">
<path d="M6.425 2.8C5.825 2.83333 5.38333 2.9 5.1 3C4.83333 3.1 4.65 3.29167 4.55 3.575C4.45 3.85833 4.4 4.31667 4.4 4.95V17.35C4.4 17.9833 4.45 18.4417 4.55 18.725C4.65 19.0083 4.83333 19.2 5.1 19.3C5.38333 19.4 5.825 19.4667 6.425 19.5V20C5.65833 19.95 4.6 19.925 3.25 19.925C1.81667 19.925 0.75 19.95 0.0500001 20V19.5C0.65 19.4667 1.08333 19.4 1.35 19.3C1.63333 19.2 1.825 19.0083 1.925 18.725C2.025 18.4417 2.075 17.9833 2.075 17.35V4.95C2.075 4.31667 2.025 3.85833 1.925 3.575C1.825 3.29167 1.63333 3.1 1.35 3C1.08333 2.9 0.65 2.83333 0.0500001 2.8V2.3C0.75 2.35 1.81667 2.375 3.25 2.375C4.58333 2.375 5.64167 2.35 6.425 2.3V2.8ZM12.1717 17.675C12.1717 18.3583 12.3133 18.8333 12.5967 19.1C12.88 19.35 13.3717 19.475 14.0717 19.475V20C12.5383 19.9333 11.53 19.9 11.0467 19.9C10.5633 19.9 9.55501 19.9333 8.02168 20V19.475C8.72168 19.475 9.21335 19.35 9.49668 19.1C9.78001 18.8333 9.92168 18.3583 9.92168 17.675V3.4C9.92168 2.63333 9.78001 2.075 9.49668 1.725C9.21335 1.375 8.72168 1.2 8.02168 1.2V0.674998C8.53835 0.724999 9.05501 0.749999 9.57168 0.749999C10.6217 0.749999 11.4883 0.633332 12.1717 0.399999V17.675ZM19.325 17.675C19.325 18.3583 19.4667 18.8333 19.75 19.1C20.0333 19.35 20.525 19.475 21.225 19.475V20C19.6917 19.9333 18.6833 19.9 18.2 19.9C17.7167 19.9 16.7083 19.9333 15.175 20V19.475C15.875 19.475 16.3667 19.35 16.65 19.1C16.9333 18.8333 17.075 18.3583 17.075 17.675V3.4C17.075 2.63333 16.9333 2.075 16.65 1.725C16.3667 1.375 15.875 1.2 15.175 1.2V0.674998C15.6917 0.724999 16.2083 0.749999 16.725 0.749999C17.775 0.749999 18.6417 0.633332 19.325 0.399999V17.675ZM33.8533 17.3C33.8533 18.0667 33.995 18.625 34.2783 18.975C34.5617 19.325 35.0533 19.5 35.7533 19.5V20.025C35.2367 19.975 34.72 19.95 34.2033 19.95C33.1533 19.95 32.2867 20.0667 31.6033 20.3V17.35C31.2033 18.3833 30.6367 19.1417 29.9033 19.625C29.17 20.1083 28.37 20.35 27.5033 20.35C26.37 20.35 25.5033 20.0333 24.9033 19.4C24.6033 19.0667 24.3867 18.6417 24.2533 18.125C24.1367 17.6083 24.0783 16.9417 24.0783 16.125V9.85C24.0783 9.08333 23.9367 8.525 23.6533 8.175C23.37 7.825 22.8783 7.65 22.1783 7.65V7.125C22.695 7.175 23.2117 7.2 23.7283 7.2C24.7783 7.2 25.645 7.08333 26.3283 6.85V16.675C26.3283 17.3083 26.3617 17.825 26.4283 18.225C26.5117 18.6083 26.6867 18.925 26.9533 19.175C27.2367 19.425 27.6617 19.55 28.2283 19.55C28.8617 19.55 29.4367 19.35 29.9533 18.95C30.47 18.55 30.87 18.0083 31.1533 17.325C31.4533 16.625 31.6033 15.8583 31.6033 15.025V9.85C31.6033 9.08333 31.4617 8.525 31.1783 8.175C30.895 7.825 30.4033 7.65 29.7033 7.65V7.125C30.22 7.175 30.7367 7.2 31.2533 7.2C32.3033 7.2 33.17 7.08333 33.8533 6.85V17.3ZM56.2297 17.675C56.2297 18.3583 56.3714 18.8333 56.6547 19.1C56.938 19.35 57.4297 19.475 58.1297 19.475V20C56.5964 19.9333 55.5964 19.9 55.1297 19.9C54.663 19.9 53.7297 19.9333 52.3297 20V19.475C52.9464 19.475 53.3714 19.35 53.6047 19.1C53.8547 18.8333 53.9797 18.3583 53.9797 17.675V10.45C53.9797 9.81667 53.938 9.30833 53.8547 8.925C53.788 8.525 53.613 8.2 53.3297 7.95C53.063 7.7 52.6464 7.575 52.0797 7.575C51.4464 7.575 50.8714 7.775 50.3547 8.175C49.838 8.575 49.4297 9.125 49.1297 9.825C48.8464 10.5083 48.7047 11.2667 48.7047 12.1V17.675C48.7047 18.3583 48.8464 18.8333 49.1297 19.1C49.413 19.35 49.9047 19.475 50.6047 19.475V20C49.0714 19.9333 48.0714 19.9 47.6047 19.9C47.138 19.9 46.2047 19.9333 44.8047 20V19.475C45.4214 19.475 45.8464 19.35 46.0797 19.1C46.3297 18.8333 46.4547 18.3583 46.4547 17.675V10.45C46.4547 9.81667 46.413 9.30833 46.3297 8.925C46.263 8.525 46.088 8.2 45.8047 7.95C45.538 7.7 45.1214 7.575 44.5547 7.575C43.9214 7.575 43.3464 7.775 42.8297 8.175C42.313 8.575 41.9047 9.125 41.6047 9.825C41.3214 10.525 41.1797 11.2917 41.1797 12.125V17.675C41.1797 18.3583 41.2964 18.8333 41.5297 19.1C41.7797 19.35 42.213 19.475 42.8297 19.475V20C41.4297 19.9333 40.4964 19.9 40.0297 19.9C39.563 19.9 38.563 19.9333 37.0297 20V19.475C37.7297 19.475 38.2214 19.35 38.5047 19.1C38.788 18.8333 38.9297 18.3583 38.9297 17.675V9.85C38.9297 9.08333 38.788 8.525 38.5047 8.175C38.2214 7.825 37.7297 7.65 37.0297 7.65V7.125C37.563 7.175 38.0797 7.2 38.5797 7.2C39.6297 7.2 40.4964 7.08333 41.1797 6.85V9.8C41.5797 8.76667 42.1464 8.00833 42.8797 7.525C43.613 7.025 44.413 6.775 45.2797 6.775C46.413 6.775 47.2797 7.09167 47.8797 7.725C48.2964 8.15833 48.5547 8.825 48.6547 9.725C49.0714 8.675 49.6464 7.925 50.3797 7.475C51.113 7.00833 51.9214 6.775 52.8047 6.775C53.938 6.775 54.8047 7.09167 55.4047 7.725C55.7047 8.05833 55.913 8.48333 56.0297 9C56.163 9.51667 56.2297 10.1833 56.2297 11V17.675ZM70.0721 17C69.7721 17.9167 69.2054 18.7083 68.3721 19.375C67.5554 20.025 66.5637 20.35 65.3971 20.35C64.2137 20.35 63.1887 20.0833 62.3221 19.55C61.4554 19 60.7887 18.2417 60.3221 17.275C59.8721 16.2917 59.6471 15.1583 59.6471 13.875C59.6471 12.425 59.8804 11.1667 60.3471 10.1C60.8137 9.03333 61.4721 8.21667 62.3221 7.65C63.1721 7.06667 64.1637 6.775 65.2971 6.775C66.7971 6.775 67.9471 7.23333 68.7471 8.15C69.5637 9.05 69.9721 10.425 69.9721 12.275H62.1471C62.0971 12.7417 62.0721 13.275 62.0721 13.875C62.0721 14.975 62.2471 15.9333 62.5971 16.75C62.9637 17.5667 63.4387 18.2 64.0221 18.65C64.6221 19.0833 65.2471 19.3 65.8971 19.3C66.6971 19.3 67.4054 19.1083 68.0221 18.725C68.6387 18.3417 69.1554 17.7 69.5721 16.8L70.0721 17ZM65.1971 7.25C64.4137 7.25 63.7387 7.63333 63.1721 8.4C62.6054 9.16667 62.2554 10.3 62.1221 11.8H67.5721C67.6054 10.5 67.4137 9.41667 66.9971 8.55C66.5971 7.68333 65.9971 7.25 65.1971 7.25ZM80.2686 6.775C81.4352 6.775 82.3186 7.09167 82.9186 7.725C83.2352 8.05833 83.4602 8.475 83.5936 8.975C83.7269 9.475 83.7936 10.15 83.7936 11V17.675C83.7936 18.3583 83.9352 18.8333 84.2186 19.1C84.5019 19.35 84.9936 19.475 85.6936 19.475V20C84.1602 19.9333 83.1602 19.9 82.6936 19.9C82.2269 19.9 81.2936 19.9333 79.8936 20V19.475C80.5102 19.475 80.9352 19.35 81.1686 19.1C81.4186 18.8333 81.5436 18.3583 81.5436 17.675V10.45C81.5436 9.51667 81.4102 8.80833 81.1436 8.325C80.8769 7.825 80.3352 7.575 79.5186 7.575C78.8352 7.575 78.2269 7.775 77.6936 8.175C77.1602 8.575 76.7436 9.125 76.4436 9.825C76.1602 10.5083 76.0186 11.275 76.0186 12.125V17.675C76.0186 18.3583 76.1352 18.8333 76.3686 19.1C76.6186 19.35 77.0519 19.475 77.6686 19.475V20C76.2686 19.9333 75.3352 19.9 74.8686 19.9C74.4019 19.9 73.4019 19.9333 71.8686 20V19.475C72.5686 19.475 73.0602 19.35 73.3436 19.1C73.6269 18.8333 73.7686 18.3583 73.7686 17.675V9.85C73.7686 9.08333 73.6269 8.525 73.3436 8.175C73.0602 7.825 72.5686 7.65 71.8686 7.65V7.125C72.4019 7.175 72.9186 7.2 73.4186 7.2C74.4686 7.2 75.3352 7.08333 76.0186 6.85V9.8C76.4352 8.73333 77.0102 7.96667 77.7436 7.5C78.4936 7.01667 79.3352 6.775 80.2686 6.775ZM89.6355 0.874999C90.0689 0.874999 90.4439 1.03333 90.7605 1.35C91.0772 1.66667 91.2355 2.04167 91.2355 2.475C91.2355 2.90833 91.0772 3.28333 90.7605 3.6C90.4439 3.91667 90.0689 4.075 89.6355 4.075C89.2022 4.075 88.8272 3.91667 88.5105 3.6C88.1939 3.28333 88.0355 2.90833 88.0355 2.475C88.0355 2.04167 88.1939 1.66667 88.5105 1.35C88.8272 1.03333 89.2022 0.874999 89.6355 0.874999ZM90.9355 17.675C90.9355 18.3583 91.0772 18.8333 91.3605 19.1C91.6439 19.35 92.1355 19.475 92.8355 19.475V20C91.3022 19.9333 90.2939 19.9 89.8105 19.9C89.3272 19.9 88.3189 19.9333 86.7855 20V19.475C87.4855 19.475 87.9772 19.35 88.2605 19.1C88.5439 18.8333 88.6855 18.3583 88.6855 17.675V9.85C88.6855 9.08333 88.5439 8.525 88.2605 8.175C87.9772 7.825 87.4855 7.65 86.7855 7.65V7.125C87.3189 7.175 87.8355 7.2 88.3355 7.2C89.3855 7.2 90.2522 7.08333 90.9355 6.85V17.675ZM105.01 12.85V17.35C105.01 17.9833 105.077 18.4417 105.21 18.725C105.344 19.0083 105.577 19.2 105.91 19.3C106.244 19.4 106.785 19.4667 107.535 19.5V20C106.669 19.95 105.444 19.925 103.86 19.925C102.427 19.925 101.36 19.95 100.66 20V19.5C101.26 19.4667 101.694 19.4 101.96 19.3C102.244 19.2 102.435 19.0083 102.535 18.725C102.635 18.4417 102.685 17.9833 102.685 17.35V4.95C102.685 4.31667 102.635 3.85833 102.535 3.575C102.435 3.29167 102.244 3.1 101.96 3C101.694 2.9 101.26 2.83333 100.66 2.8V2.3C101.36 2.35 102.377 2.375 103.71 2.375L106.41 2.35C106.727 2.33333 107.085 2.325 107.485 2.325C109.435 2.325 110.927 2.775 111.96 3.675C112.994 4.55833 113.51 5.75 113.51 7.25C113.51 8.16667 113.302 9.05 112.885 9.9C112.485 10.7333 111.794 11.4333 110.81 12C109.844 12.5667 108.552 12.85 106.935 12.85H105.01ZM106.86 2.8C106.344 2.8 105.952 2.85833 105.685 2.975C105.435 3.09167 105.26 3.3 105.16 3.6C105.06 3.9 105.01 4.35 105.01 4.95V12.35H106.685C108.319 12.35 109.444 11.9167 110.06 11.05C110.694 10.1667 111.01 8.99167 111.01 7.525C111.01 5.90833 110.685 4.71667 110.035 3.95C109.402 3.18333 108.344 2.8 106.86 2.8ZM118.138 20.175C117.088 20.175 116.305 19.9167 115.788 19.4C115.288 18.8667 115.038 18.1333 115.038 17.2C115.038 16.45 115.238 15.8333 115.638 15.35C116.055 14.8667 116.538 14.4833 117.088 14.2C117.655 13.9167 118.397 13.6167 119.313 13.3C120.247 12.9833 120.938 12.6917 121.388 12.425C121.838 12.1583 122.063 11.8 122.063 11.35V9.8C122.063 8.83333 121.855 8.175 121.438 7.825C121.038 7.45833 120.472 7.275 119.738 7.275C118.572 7.275 117.747 7.575 117.263 8.175C117.597 8.25833 117.872 8.43333 118.088 8.7C118.322 8.96667 118.438 9.3 118.438 9.7C118.438 10.1167 118.305 10.45 118.038 10.7C117.772 10.9333 117.43 11.05 117.013 11.05C116.547 11.05 116.197 10.9083 115.963 10.625C115.73 10.325 115.613 9.96667 115.613 9.55C115.613 9.15 115.705 8.81667 115.888 8.55C116.088 8.28333 116.38 8.01667 116.763 7.75C117.163 7.46667 117.672 7.23333 118.288 7.05C118.905 6.86667 119.58 6.775 120.313 6.775C121.613 6.775 122.597 7.08333 123.263 7.7C123.68 8.08333 123.955 8.55 124.088 9.1C124.238 9.63333 124.313 10.3417 124.313 11.225V18.175C124.313 18.5917 124.372 18.8917 124.488 19.075C124.605 19.2583 124.805 19.35 125.088 19.35C125.288 19.35 125.472 19.3083 125.638 19.225C125.822 19.125 126.013 18.9917 126.213 18.825L126.488 19.25C126.055 19.5833 125.68 19.825 125.363 19.975C125.063 20.1083 124.68 20.175 124.213 20.175C123.413 20.175 122.855 19.975 122.538 19.575C122.222 19.175 122.063 18.6333 122.063 17.95C121.563 18.7833 120.988 19.3667 120.338 19.7C119.688 20.0167 118.955 20.175 118.138 20.175ZM119.238 19.175C120.338 19.175 121.28 18.5417 122.063 17.275V12.375C121.913 12.6083 121.705 12.8 121.438 12.95C121.172 13.1 120.763 13.3 120.213 13.55C119.58 13.8167 119.063 14.075 118.663 14.325C118.28 14.5583 117.947 14.8833 117.663 15.3C117.38 15.7167 117.238 16.25 117.238 16.9C117.238 17.65 117.422 18.2167 117.788 18.6C118.155 18.9833 118.638 19.175 119.238 19.175ZM135.015 6.775C135.681 6.775 136.223 6.96667 136.64 7.35C137.073 7.73333 137.29 8.2 137.29 8.75C137.29 9.18333 137.156 9.55833 136.89 9.875C136.64 10.175 136.298 10.325 135.865 10.325C135.498 10.325 135.181 10.2083 134.915 9.975C134.665 9.74167 134.54 9.425 134.54 9.025C134.54 8.475 134.823 8.025 135.39 7.675C135.273 7.50833 135.098 7.425 134.865 7.425C134.215 7.425 133.623 7.68333 133.09 8.2C132.556 8.7 132.14 9.31667 131.84 10.05C131.54 10.7833 131.39 11.475 131.39 12.125V17.425C131.39 18.1917 131.606 18.725 132.04 19.025C132.49 19.325 133.156 19.475 134.04 19.475V20L133.44 19.975C131.74 19.925 130.656 19.9 130.19 19.9C129.756 19.9 128.773 19.9333 127.24 20V19.475C127.94 19.475 128.431 19.35 128.715 19.1C128.998 18.8333 129.14 18.3583 129.14 17.675V9.85C129.14 9.08333 128.998 8.525 128.715 8.175C128.431 7.825 127.94 7.65 127.24 7.65V7.125C127.773 7.175 128.29 7.2 128.79 7.2C129.84 7.2 130.706 7.08333 131.39 6.85V9.975C131.69 9.14167 132.165 8.4 132.815 7.75C133.481 7.1 134.215 6.775 135.015 6.775ZM148.984 18.175C149.301 18.5917 149.584 18.9 149.834 19.1C150.084 19.3 150.384 19.425 150.734 19.475V20C149.734 19.9333 149.059 19.9 148.709 19.9C148.259 19.9 147.334 19.9333 145.934 20V19.475C146.168 19.475 146.351 19.4333 146.484 19.35C146.634 19.25 146.709 19.1333 146.709 19C146.709 18.8667 146.659 18.7417 146.559 18.625L143.684 14.425C143.401 14.0083 143.126 13.7333 142.859 13.6C142.609 13.45 142.259 13.3583 141.809 13.325V17.675C141.809 18.3583 141.926 18.8333 142.159 19.1C142.409 19.35 142.843 19.475 143.459 19.475V20C142.059 19.9333 141.134 19.9 140.684 19.9C140.201 19.9 139.193 19.9333 137.659 20V19.475C138.359 19.475 138.851 19.35 139.134 19.1C139.418 18.8333 139.559 18.3583 139.559 17.675V3.4C139.559 2.63333 139.418 2.075 139.134 1.725C138.851 1.375 138.359 1.2 137.659 1.2V0.674998C138.193 0.724999 138.709 0.749999 139.209 0.749999C140.259 0.749999 141.126 0.633332 141.809 0.399999V12.8C142.293 12.7333 142.693 12.625 143.009 12.475C143.343 12.3083 143.659 12.075 143.959 11.775L145.809 9.85C146.343 9.3 146.609 8.84167 146.609 8.475C146.609 8.19167 146.434 7.98333 146.084 7.85C145.751 7.7 145.309 7.625 144.759 7.625V7.125C145.926 7.19167 146.868 7.225 147.584 7.225C148.368 7.225 149.093 7.19167 149.759 7.125V7.625C148.943 7.69167 148.193 8.08333 147.509 8.8L144.459 12L148.984 18.175ZM154.479 0.874999C154.913 0.874999 155.288 1.03333 155.604 1.35C155.921 1.66667 156.079 2.04167 156.079 2.475C156.079 2.90833 155.921 3.28333 155.604 3.6C155.288 3.91667 154.913 4.075 154.479 4.075C154.046 4.075 153.671 3.91667 153.354 3.6C153.038 3.28333 152.879 2.90833 152.879 2.475C152.879 2.04167 153.038 1.66667 153.354 1.35C153.671 1.03333 154.046 0.874999 154.479 0.874999ZM155.779 17.675C155.779 18.3583 155.921 18.8333 156.204 19.1C156.488 19.35 156.979 19.475 157.679 19.475V20C156.146 19.9333 155.138 19.9 154.654 19.9C154.171 19.9 153.163 19.9333 151.629 20V19.475C152.329 19.475 152.821 19.35 153.104 19.1C153.388 18.8333 153.529 18.3583 153.529 17.675V9.85C153.529 9.08333 153.388 8.525 153.104 8.175C152.821 7.825 152.329 7.65 151.629 7.65V7.125C152.163 7.175 152.679 7.2 153.179 7.2C154.229 7.2 155.096 7.08333 155.779 6.85V17.675ZM167.354 6.775C168.52 6.775 169.404 7.09167 170.004 7.725C170.32 8.05833 170.545 8.475 170.679 8.975C170.812 9.475 170.879 10.15 170.879 11V17.675C170.879 18.3583 171.02 18.8333 171.304 19.1C171.587 19.35 172.079 19.475 172.779 19.475V20C171.245 19.9333 170.245 19.9 169.779 19.9C169.312 19.9 168.379 19.9333 166.979 20V19.475C167.595 19.475 168.02 19.35 168.254 19.1C168.504 18.8333 168.629 18.3583 168.629 17.675V10.45C168.629 9.51667 168.495 8.80833 168.229 8.325C167.962 7.825 167.42 7.575 166.604 7.575C165.92 7.575 165.312 7.775 164.779 8.175C164.245 8.575 163.829 9.125 163.529 9.825C163.245 10.5083 163.104 11.275 163.104 12.125V17.675C163.104 18.3583 163.22 18.8333 163.454 19.1C163.704 19.35 164.137 19.475 164.754 19.475V20C163.354 19.9333 162.42 19.9 161.954 19.9C161.487 19.9 160.487 19.9333 158.954 20V19.475C159.654 19.475 160.145 19.35 160.429 19.1C160.712 18.8333 160.854 18.3583 160.854 17.675V9.85C160.854 9.08333 160.712 8.525 160.429 8.175C160.145 7.825 159.654 7.65 158.954 7.65V7.125C159.487 7.175 160.004 7.2 160.504 7.2C161.554 7.2 162.42 7.08333 163.104 6.85V9.8C163.52 8.73333 164.095 7.96667 164.829 7.5C165.579 7.01667 166.42 6.775 167.354 6.775ZM184.676 9.375C184.376 9.375 184.118 9.275 183.901 9.075C183.701 8.875 183.601 8.58333 183.601 8.2C183.601 7.86667 183.685 7.48333 183.851 7.05C183.418 7.23333 183.076 7.44167 182.826 7.675C182.576 7.89167 182.351 8.16667 182.151 8.5C182.535 9.08333 182.726 9.825 182.726 10.725C182.726 12.0417 182.326 13.0333 181.526 13.7C180.726 14.35 179.668 14.675 178.351 14.675H178.326C177.776 14.9917 177.36 15.2833 177.076 15.55C176.793 15.8167 176.651 16.1167 176.651 16.45C176.651 16.9833 177.051 17.25 177.851 17.25H180.976C182.11 17.25 183.043 17.5 183.776 18C184.526 18.4833 184.901 19.2167 184.901 20.2C184.901 21 184.643 21.7417 184.126 22.425C183.61 23.1083 182.851 23.6583 181.851 24.075C180.851 24.4917 179.643 24.7 178.226 24.7C176.776 24.7 175.56 24.475 174.576 24.025C173.61 23.5917 173.126 22.9417 173.126 22.075C173.126 21.5083 173.351 21.0167 173.801 20.6C174.268 20.1833 174.91 19.8583 175.726 19.625L175.876 20.025C175.51 20.1417 175.218 20.375 175.001 20.725C174.785 21.075 174.676 21.4667 174.676 21.9C174.676 22.6667 175.018 23.25 175.701 23.65C176.401 24.0667 177.335 24.275 178.501 24.275C179.785 24.275 180.885 24.025 181.801 23.525C182.718 23.0417 183.176 22.2833 183.176 21.25C183.176 20.65 182.96 20.1833 182.526 19.85C182.11 19.5167 181.36 19.35 180.276 19.35H178.426C177.443 19.35 176.651 19.225 176.051 18.975C175.468 18.725 175.176 18.225 175.176 17.475C175.176 16.9583 175.36 16.4667 175.726 16C176.11 15.5333 176.735 15.075 177.601 14.625C176.501 14.5083 175.618 14.125 174.951 13.475C174.301 12.825 173.976 11.9083 173.976 10.725C173.976 9.40833 174.376 8.425 175.176 7.775C175.976 7.10833 177.035 6.775 178.351 6.775C179.918 6.775 181.076 7.20833 181.826 8.075C182.143 7.625 182.543 7.25833 183.026 6.975C183.51 6.675 183.993 6.525 184.476 6.525C184.91 6.525 185.26 6.65 185.526 6.9C185.793 7.15 185.926 7.50833 185.926 7.975C185.926 8.44167 185.793 8.79167 185.526 9.025C185.276 9.25833 184.993 9.375 184.676 9.375ZM178.351 14.225C179.018 14.225 179.518 13.9667 179.851 13.45C180.201 12.9167 180.376 12.0083 180.376 10.725C180.376 9.44167 180.201 8.54167 179.851 8.025C179.518 7.49167 179.018 7.225 178.351 7.225C177.685 7.225 177.176 7.49167 176.826 8.025C176.493 8.54167 176.326 9.44167 176.326 10.725C176.326 12.0083 176.493 12.9167 176.826 13.45C177.176 13.9667 177.685 14.225 178.351 14.225ZM191.187 6.775C191.787 6.775 192.321 6.86667 192.787 7.05C193.254 7.23333 193.629 7.45 193.912 7.7C194.096 7.83333 194.246 7.9 194.362 7.9C194.662 7.9 194.846 7.53333 194.912 6.8H195.487C195.421 7.61667 195.387 9.03333 195.387 11.05H194.812C194.629 9.95 194.271 9.04167 193.737 8.325C193.221 7.60833 192.446 7.25 191.412 7.25C190.812 7.25 190.321 7.425 189.937 7.775C189.554 8.10833 189.362 8.575 189.362 9.175C189.362 9.75833 189.562 10.25 189.962 10.65C190.362 11.0333 191.004 11.5 191.887 12.05C192.037 12.1333 192.262 12.275 192.562 12.475C193.329 12.975 193.946 13.4167 194.412 13.8C194.879 14.1833 195.254 14.625 195.537 15.125C195.837 15.625 195.987 16.2 195.987 16.85C195.987 17.95 195.571 18.8083 194.737 19.425C193.921 20.0417 192.912 20.35 191.712 20.35C190.962 20.35 190.304 20.2333 189.737 20C189.371 19.8167 189.029 19.5917 188.712 19.325C188.646 19.2583 188.571 19.225 188.487 19.225C188.371 19.225 188.262 19.3083 188.162 19.475C188.079 19.6417 188.012 19.875 187.962 20.175H187.387C187.454 19.225 187.487 17.5583 187.487 15.175H188.062C188.246 16.7417 188.579 17.9167 189.062 18.7C189.546 19.4667 190.371 19.85 191.537 19.85C192.121 19.85 192.637 19.6583 193.087 19.275C193.537 18.8917 193.762 18.2917 193.762 17.475C193.762 16.825 193.537 16.275 193.087 15.825C192.654 15.375 191.937 14.8333 190.937 14.2C190.121 13.6833 189.487 13.2583 189.037 12.925C188.604 12.5917 188.237 12.1833 187.937 11.7C187.637 11.2167 187.487 10.65 187.487 10C187.487 8.95 187.837 8.15 188.537 7.6C189.237 7.05 190.121 6.775 191.187 6.775Z" fill="#4C4C6D"/>
</svg>
